%TF.GenerationSoftware,KiCad,Pcbnew,(6.0.7-1)-1*%
%TF.CreationDate,2022-08-16T19:59:30+02:00*%
%TF.ProjectId,optical-keyboard-mx,6f707469-6361-46c2-9d6b-6579626f6172,rev?*%
%TF.SameCoordinates,Original*%
%TF.FileFunction,Drillmap*%
%TF.FilePolarity,Positive*%
%FSLAX45Y45*%
G04 Gerber Fmt 4.5, Leading zero omitted, Abs format (unit mm)*
G04 Created by KiCad (PCBNEW (6.0.7-1)-1) date 2022-08-16 19:59:30*
%MOMM*%
%LPD*%
G01*
G04 APERTURE LIST*
%ADD10C,0.100000*%
%ADD11C,0.200000*%
%ADD12C,0.350000*%
G04 APERTURE END LIST*
D10*
X29225000Y-16950000D02*
X29225000Y-11650000D01*
X12128234Y-10921581D02*
X12743870Y-9230135D01*
X17779634Y-10382641D02*
X15806280Y-11100883D01*
X29525000Y-8950000D02*
G75*
G03*
X29225000Y-9250000I0J-300000D01*
G01*
X20175000Y-16950000D02*
G75*
G03*
X20475000Y-17250000I300000J0D01*
G01*
X17779633Y-10382636D02*
G75*
G03*
X17958936Y-9998127I-102603J281906D01*
G01*
X30500000Y-4350000D02*
X30150000Y-4350000D01*
X20475000Y-17250000D02*
X28925000Y-17250000D01*
X7375000Y-16950000D02*
X7375000Y-11650000D01*
X7375000Y-11350000D02*
X7375000Y-9350000D01*
X7757691Y-9061622D02*
G75*
G03*
X7375000Y-9350000I-82691J-288379D01*
G01*
X7375000Y-11650000D02*
X7375000Y-11350000D01*
X175000Y-2850000D02*
X-1675000Y-2850000D01*
X7075000Y-17250000D02*
G75*
G03*
X7375000Y-16950000I0J300000D01*
G01*
X475000Y1050000D02*
X475000Y-2550000D01*
X7888891Y-9070384D02*
X7787000Y-9071000D01*
X28925000Y-17250000D02*
G75*
G03*
X29225000Y-16950000I0J300000D01*
G01*
X29850000Y-4050000D02*
X29850000Y1050000D01*
X18106850Y-9466189D02*
X18282110Y-9397703D01*
X29225000Y-11350000D02*
X29225000Y-9250000D01*
X13025778Y-9032741D02*
X14524222Y-9032741D01*
X18282110Y-9397703D02*
X19195309Y-9135848D01*
X15421766Y-10921581D02*
X14806130Y-9230135D01*
X20175000Y-9350000D02*
G75*
G03*
X19792309Y-9061622I-300000J0D01*
G01*
X-1675000Y-11350000D02*
X-1675000Y-11650000D01*
X18106851Y-9466193D02*
G75*
G03*
X17907633Y-9857173I82689J-288377D01*
G01*
X20175000Y-11650000D02*
X20175000Y-11350000D01*
X13025778Y-9032739D02*
G75*
G03*
X12743870Y-9230135I2J-300002D01*
G01*
X20175000Y-11650000D02*
X20175000Y-16950000D01*
X9770366Y-10382641D02*
X11743720Y-11100883D01*
X29850000Y1050000D02*
G75*
G03*
X29550000Y1350000I-300000J0D01*
G01*
X9625265Y-9904157D02*
G75*
G03*
X9426049Y-9513173I-281905J102607D01*
G01*
X9591059Y-9998125D02*
G75*
G03*
X9770366Y-10382641I281911J-102605D01*
G01*
X29225000Y-11650000D02*
X29225000Y-11350000D01*
X775000Y1350000D02*
G75*
G03*
X475000Y1050000I0J-300000D01*
G01*
X-1375000Y-17250000D02*
X7075000Y-17250000D01*
X-1675000Y-2850000D02*
X-1675000Y-11350000D01*
X15421764Y-10921582D02*
G75*
G03*
X15806280Y-11100883I281906J102602D01*
G01*
X7888891Y-9070384D02*
X9030390Y-9397703D01*
X30500000Y-8950000D02*
G75*
G03*
X30800000Y-8650000I0J300000D01*
G01*
X11743721Y-11100881D02*
G75*
G03*
X12128234Y-10921581I102609J281901D01*
G01*
X7757691Y-9061622D02*
X7787000Y-9071000D01*
X-1675000Y-16950000D02*
G75*
G03*
X-1375000Y-17250000I300000J0D01*
G01*
X29525000Y-8950000D02*
X30500000Y-8950000D01*
X30800000Y-4650000D02*
G75*
G03*
X30500000Y-4350000I-300000J0D01*
G01*
X775000Y1350000D02*
X29550000Y1350000D01*
X20175000Y-9350000D02*
X20175000Y-11350000D01*
X9591064Y-9998127D02*
X9625266Y-9904158D01*
X14806128Y-9230135D02*
G75*
G03*
X14524222Y-9032741I-281908J-102605D01*
G01*
X9030390Y-9397703D02*
X9426049Y-9513173D01*
X30800000Y-8650000D02*
X30800000Y-4650000D01*
X19195309Y-9135848D02*
X19792309Y-9061622D01*
X29850000Y-4050000D02*
G75*
G03*
X30150000Y-4350000I300000J0D01*
G01*
X-1675000Y-11650000D02*
X-1675000Y-16950000D01*
X175000Y-2850000D02*
G75*
G03*
X475000Y-2550000I0J300000D01*
G01*
X17958936Y-9998127D02*
X17907633Y-9857173D01*
D11*
D12*
X-800000Y-4200000D02*
X-450000Y-4550000D01*
X-450000Y-4200000D02*
X-800000Y-4550000D01*
D11*
X-800000Y-4550000D02*
X-450000Y-4550000D01*
X-800000Y-4200000D02*
X-450000Y-4200000D01*
X-450000Y-4550000D02*
G75*
G03*
X-450000Y-4200000I0J175000D01*
G01*
X-800000Y-4200000D02*
G75*
G03*
X-800000Y-4550000I0J-175000D01*
G01*
X-1422381Y-17565476D02*
X-1422381Y-17365476D01*
X-1374762Y-17365476D01*
X-1346190Y-17375000D01*
X-1327143Y-17394048D01*
X-1317619Y-17413095D01*
X-1308095Y-17451190D01*
X-1308095Y-17479762D01*
X-1317619Y-17517857D01*
X-1327143Y-17536905D01*
X-1346190Y-17555952D01*
X-1374762Y-17565476D01*
X-1422381Y-17565476D01*
X-1222381Y-17565476D02*
X-1222381Y-17432143D01*
X-1222381Y-17470238D02*
X-1212857Y-17451190D01*
X-1203333Y-17441667D01*
X-1184286Y-17432143D01*
X-1165238Y-17432143D01*
X-1098571Y-17565476D02*
X-1098571Y-17432143D01*
X-1098571Y-17365476D02*
X-1108095Y-17375000D01*
X-1098571Y-17384524D01*
X-1089048Y-17375000D01*
X-1098571Y-17365476D01*
X-1098571Y-17384524D01*
X-974762Y-17565476D02*
X-993809Y-17555952D01*
X-1003333Y-17536905D01*
X-1003333Y-17365476D01*
X-870000Y-17565476D02*
X-889048Y-17555952D01*
X-898571Y-17536905D01*
X-898571Y-17365476D01*
X-641429Y-17565476D02*
X-641429Y-17365476D01*
X-574762Y-17508333D01*
X-508095Y-17365476D01*
X-508095Y-17565476D01*
X-327143Y-17565476D02*
X-327143Y-17460714D01*
X-336667Y-17441667D01*
X-355714Y-17432143D01*
X-393809Y-17432143D01*
X-412857Y-17441667D01*
X-327143Y-17555952D02*
X-346190Y-17565476D01*
X-393809Y-17565476D01*
X-412857Y-17555952D01*
X-422381Y-17536905D01*
X-422381Y-17517857D01*
X-412857Y-17498810D01*
X-393809Y-17489286D01*
X-346190Y-17489286D01*
X-327143Y-17479762D01*
X-231905Y-17432143D02*
X-231905Y-17632143D01*
X-231905Y-17441667D02*
X-212857Y-17432143D01*
X-174762Y-17432143D01*
X-155714Y-17441667D01*
X-146190Y-17451190D01*
X-136667Y-17470238D01*
X-136667Y-17527381D01*
X-146190Y-17546429D01*
X-155714Y-17555952D01*
X-174762Y-17565476D01*
X-212857Y-17565476D01*
X-231905Y-17555952D01*
X-50952Y-17546429D02*
X-41429Y-17555952D01*
X-50952Y-17565476D01*
X-60476Y-17555952D01*
X-50952Y-17546429D01*
X-50952Y-17565476D01*
X-50952Y-17441667D02*
X-41429Y-17451190D01*
X-50952Y-17460714D01*
X-60476Y-17451190D01*
X-50952Y-17441667D01*
X-50952Y-17460714D01*
X-1880000Y-17795000D02*
X-1680000Y-17995000D01*
X-1680000Y-17795000D02*
X-1880000Y-17995000D01*
X-1441428Y-17785476D02*
X-1317619Y-17785476D01*
X-1384286Y-17861667D01*
X-1355714Y-17861667D01*
X-1336667Y-17871190D01*
X-1327143Y-17880714D01*
X-1317619Y-17899762D01*
X-1317619Y-17947381D01*
X-1327143Y-17966429D01*
X-1336667Y-17975952D01*
X-1355714Y-17985476D01*
X-1412857Y-17985476D01*
X-1431905Y-17975952D01*
X-1441428Y-17966429D01*
X-1231905Y-17966429D02*
X-1222381Y-17975952D01*
X-1231905Y-17985476D01*
X-1241429Y-17975952D01*
X-1231905Y-17966429D01*
X-1231905Y-17985476D01*
X-1041428Y-17785476D02*
X-1136667Y-17785476D01*
X-1146190Y-17880714D01*
X-1136667Y-17871190D01*
X-1117619Y-17861667D01*
X-1070000Y-17861667D01*
X-1050952Y-17871190D01*
X-1041428Y-17880714D01*
X-1031905Y-17899762D01*
X-1031905Y-17947381D01*
X-1041428Y-17966429D01*
X-1050952Y-17975952D01*
X-1070000Y-17985476D01*
X-1117619Y-17985476D01*
X-1136667Y-17975952D01*
X-1146190Y-17966429D01*
X-908095Y-17785476D02*
X-889048Y-17785476D01*
X-870000Y-17795000D01*
X-860476Y-17804524D01*
X-850952Y-17823571D01*
X-841428Y-17861667D01*
X-841428Y-17909286D01*
X-850952Y-17947381D01*
X-860476Y-17966429D01*
X-870000Y-17975952D01*
X-889048Y-17985476D01*
X-908095Y-17985476D01*
X-927143Y-17975952D01*
X-936667Y-17966429D01*
X-946190Y-17947381D01*
X-955714Y-17909286D01*
X-955714Y-17861667D01*
X-946190Y-17823571D01*
X-936667Y-17804524D01*
X-927143Y-17795000D01*
X-908095Y-17785476D01*
X-717619Y-17785476D02*
X-698571Y-17785476D01*
X-679524Y-17795000D01*
X-670000Y-17804524D01*
X-660476Y-17823571D01*
X-650952Y-17861667D01*
X-650952Y-17909286D01*
X-660476Y-17947381D01*
X-670000Y-17966429D01*
X-679524Y-17975952D01*
X-698571Y-17985476D01*
X-717619Y-17985476D01*
X-736667Y-17975952D01*
X-746190Y-17966429D01*
X-755714Y-17947381D01*
X-765238Y-17909286D01*
X-765238Y-17861667D01*
X-755714Y-17823571D01*
X-746190Y-17804524D01*
X-736667Y-17795000D01*
X-717619Y-17785476D01*
X-565238Y-17985476D02*
X-565238Y-17852143D01*
X-565238Y-17871190D02*
X-555714Y-17861667D01*
X-536667Y-17852143D01*
X-508095Y-17852143D01*
X-489048Y-17861667D01*
X-479524Y-17880714D01*
X-479524Y-17985476D01*
X-479524Y-17880714D02*
X-470000Y-17861667D01*
X-450952Y-17852143D01*
X-422381Y-17852143D01*
X-403333Y-17861667D01*
X-393809Y-17880714D01*
X-393809Y-17985476D01*
X-298571Y-17985476D02*
X-298571Y-17852143D01*
X-298571Y-17871190D02*
X-289048Y-17861667D01*
X-270000Y-17852143D01*
X-241428Y-17852143D01*
X-222381Y-17861667D01*
X-212857Y-17880714D01*
X-212857Y-17985476D01*
X-212857Y-17880714D02*
X-203333Y-17861667D01*
X-184286Y-17852143D01*
X-155714Y-17852143D01*
X-136667Y-17861667D01*
X-127143Y-17880714D01*
X-127143Y-17985476D01*
X263333Y-17775952D02*
X91905Y-18033095D01*
X520476Y-17785476D02*
X539524Y-17785476D01*
X558571Y-17795000D01*
X568095Y-17804524D01*
X577619Y-17823571D01*
X587143Y-17861667D01*
X587143Y-17909286D01*
X577619Y-17947381D01*
X568095Y-17966429D01*
X558571Y-17975952D01*
X539524Y-17985476D01*
X520476Y-17985476D01*
X501428Y-17975952D01*
X491905Y-17966429D01*
X482381Y-17947381D01*
X472857Y-17909286D01*
X472857Y-17861667D01*
X482381Y-17823571D01*
X491905Y-17804524D01*
X501428Y-17795000D01*
X520476Y-17785476D01*
X672857Y-17966429D02*
X682381Y-17975952D01*
X672857Y-17985476D01*
X663333Y-17975952D01*
X672857Y-17966429D01*
X672857Y-17985476D01*
X872857Y-17985476D02*
X758571Y-17985476D01*
X815714Y-17985476D02*
X815714Y-17785476D01*
X796667Y-17814048D01*
X777619Y-17833095D01*
X758571Y-17842619D01*
X939524Y-17785476D02*
X1063333Y-17785476D01*
X996667Y-17861667D01*
X1025238Y-17861667D01*
X1044286Y-17871190D01*
X1053810Y-17880714D01*
X1063333Y-17899762D01*
X1063333Y-17947381D01*
X1053810Y-17966429D01*
X1044286Y-17975952D01*
X1025238Y-17985476D01*
X968095Y-17985476D01*
X949048Y-17975952D01*
X939524Y-17966429D01*
X1130000Y-17785476D02*
X1263333Y-17785476D01*
X1177619Y-17985476D01*
X1368095Y-17871190D02*
X1349048Y-17861667D01*
X1339524Y-17852143D01*
X1330000Y-17833095D01*
X1330000Y-17823571D01*
X1339524Y-17804524D01*
X1349048Y-17795000D01*
X1368095Y-17785476D01*
X1406190Y-17785476D01*
X1425238Y-17795000D01*
X1434762Y-17804524D01*
X1444286Y-17823571D01*
X1444286Y-17833095D01*
X1434762Y-17852143D01*
X1425238Y-17861667D01*
X1406190Y-17871190D01*
X1368095Y-17871190D01*
X1349048Y-17880714D01*
X1339524Y-17890238D01*
X1330000Y-17909286D01*
X1330000Y-17947381D01*
X1339524Y-17966429D01*
X1349048Y-17975952D01*
X1368095Y-17985476D01*
X1406190Y-17985476D01*
X1425238Y-17975952D01*
X1434762Y-17966429D01*
X1444286Y-17947381D01*
X1444286Y-17909286D01*
X1434762Y-17890238D01*
X1425238Y-17880714D01*
X1406190Y-17871190D01*
X1520476Y-17785476D02*
X1520476Y-17823571D01*
X1596667Y-17785476D02*
X1596667Y-17823571D01*
X1891905Y-18061667D02*
X1882381Y-18052143D01*
X1863333Y-18023571D01*
X1853809Y-18004524D01*
X1844286Y-17975952D01*
X1834762Y-17928333D01*
X1834762Y-17890238D01*
X1844286Y-17842619D01*
X1853809Y-17814048D01*
X1863333Y-17795000D01*
X1882381Y-17766429D01*
X1891905Y-17756905D01*
X2072857Y-17985476D02*
X1958571Y-17985476D01*
X2015714Y-17985476D02*
X2015714Y-17785476D01*
X1996667Y-17814048D01*
X1977619Y-17833095D01*
X1958571Y-17842619D01*
X2301429Y-17975952D02*
X2320476Y-17985476D01*
X2358571Y-17985476D01*
X2377619Y-17975952D01*
X2387143Y-17956905D01*
X2387143Y-17947381D01*
X2377619Y-17928333D01*
X2358571Y-17918810D01*
X2330000Y-17918810D01*
X2310952Y-17909286D01*
X2301429Y-17890238D01*
X2301429Y-17880714D01*
X2310952Y-17861667D01*
X2330000Y-17852143D01*
X2358571Y-17852143D01*
X2377619Y-17861667D01*
X2501429Y-17985476D02*
X2482381Y-17975952D01*
X2472857Y-17956905D01*
X2472857Y-17785476D01*
X2606190Y-17985476D02*
X2587143Y-17975952D01*
X2577619Y-17966429D01*
X2568095Y-17947381D01*
X2568095Y-17890238D01*
X2577619Y-17871190D01*
X2587143Y-17861667D01*
X2606190Y-17852143D01*
X2634762Y-17852143D01*
X2653810Y-17861667D01*
X2663333Y-17871190D01*
X2672857Y-17890238D01*
X2672857Y-17947381D01*
X2663333Y-17966429D01*
X2653810Y-17975952D01*
X2634762Y-17985476D01*
X2606190Y-17985476D01*
X2730000Y-17852143D02*
X2806190Y-17852143D01*
X2758571Y-17785476D02*
X2758571Y-17956905D01*
X2768095Y-17975952D01*
X2787143Y-17985476D01*
X2806190Y-17985476D01*
X2853809Y-18061667D02*
X2863333Y-18052143D01*
X2882381Y-18023571D01*
X2891905Y-18004524D01*
X2901428Y-17975952D01*
X2910952Y-17928333D01*
X2910952Y-17890238D01*
X2901428Y-17842619D01*
X2891905Y-17814048D01*
X2882381Y-17795000D01*
X2863333Y-17766429D01*
X2853809Y-17756905D01*
X3215714Y-18061667D02*
X3206190Y-18052143D01*
X3187143Y-18023571D01*
X3177619Y-18004524D01*
X3168095Y-17975952D01*
X3158571Y-17928333D01*
X3158571Y-17890238D01*
X3168095Y-17842619D01*
X3177619Y-17814048D01*
X3187143Y-17795000D01*
X3206190Y-17766429D01*
X3215714Y-17756905D01*
X3291905Y-17852143D02*
X3291905Y-17985476D01*
X3291905Y-17871190D02*
X3301428Y-17861667D01*
X3320476Y-17852143D01*
X3349048Y-17852143D01*
X3368095Y-17861667D01*
X3377619Y-17880714D01*
X3377619Y-17985476D01*
X3501428Y-17985476D02*
X3482381Y-17975952D01*
X3472857Y-17966429D01*
X3463333Y-17947381D01*
X3463333Y-17890238D01*
X3472857Y-17871190D01*
X3482381Y-17861667D01*
X3501428Y-17852143D01*
X3530000Y-17852143D01*
X3549048Y-17861667D01*
X3558571Y-17871190D01*
X3568095Y-17890238D01*
X3568095Y-17947381D01*
X3558571Y-17966429D01*
X3549048Y-17975952D01*
X3530000Y-17985476D01*
X3501428Y-17985476D01*
X3625238Y-17852143D02*
X3701428Y-17852143D01*
X3653809Y-17785476D02*
X3653809Y-17956905D01*
X3663333Y-17975952D01*
X3682381Y-17985476D01*
X3701428Y-17985476D01*
X3920476Y-17852143D02*
X3920476Y-18052143D01*
X3920476Y-17861667D02*
X3939524Y-17852143D01*
X3977619Y-17852143D01*
X3996667Y-17861667D01*
X4006190Y-17871190D01*
X4015714Y-17890238D01*
X4015714Y-17947381D01*
X4006190Y-17966429D01*
X3996667Y-17975952D01*
X3977619Y-17985476D01*
X3939524Y-17985476D01*
X3920476Y-17975952D01*
X4130000Y-17985476D02*
X4110952Y-17975952D01*
X4101428Y-17956905D01*
X4101428Y-17785476D01*
X4291905Y-17985476D02*
X4291905Y-17880714D01*
X4282381Y-17861667D01*
X4263333Y-17852143D01*
X4225238Y-17852143D01*
X4206190Y-17861667D01*
X4291905Y-17975952D02*
X4272857Y-17985476D01*
X4225238Y-17985476D01*
X4206190Y-17975952D01*
X4196667Y-17956905D01*
X4196667Y-17937857D01*
X4206190Y-17918810D01*
X4225238Y-17909286D01*
X4272857Y-17909286D01*
X4291905Y-17899762D01*
X4358571Y-17852143D02*
X4434762Y-17852143D01*
X4387143Y-17785476D02*
X4387143Y-17956905D01*
X4396667Y-17975952D01*
X4415714Y-17985476D01*
X4434762Y-17985476D01*
X4577619Y-17975952D02*
X4558571Y-17985476D01*
X4520476Y-17985476D01*
X4501429Y-17975952D01*
X4491905Y-17956905D01*
X4491905Y-17880714D01*
X4501429Y-17861667D01*
X4520476Y-17852143D01*
X4558571Y-17852143D01*
X4577619Y-17861667D01*
X4587143Y-17880714D01*
X4587143Y-17899762D01*
X4491905Y-17918810D01*
X4758571Y-17985476D02*
X4758571Y-17785476D01*
X4758571Y-17975952D02*
X4739524Y-17985476D01*
X4701429Y-17985476D01*
X4682381Y-17975952D01*
X4672857Y-17966429D01*
X4663333Y-17947381D01*
X4663333Y-17890238D01*
X4672857Y-17871190D01*
X4682381Y-17861667D01*
X4701429Y-17852143D01*
X4739524Y-17852143D01*
X4758571Y-17861667D01*
X4834762Y-18061667D02*
X4844286Y-18052143D01*
X4863333Y-18023571D01*
X4872857Y-18004524D01*
X4882381Y-17975952D01*
X4891905Y-17928333D01*
X4891905Y-17890238D01*
X4882381Y-17842619D01*
X4872857Y-17814048D01*
X4863333Y-17795000D01*
X4844286Y-17766429D01*
X4834762Y-17756905D01*
M02*
