M48
; DRILL file {KiCad (6.0.7-1)-1} date Thursday, August 18, 2022 at 09:54:42 AM
; FORMAT={-:-/ absolute / metric / decimal}
; #@! TF.CreationDate,2022-08-18T09:54:42+02:00
; #@! TF.GenerationSoftware,Kicad,Pcbnew,(6.0.7-1)-1
; #@! TF.FileFunction,Plated,1,2,PTH
FMAT,2
METRIC
; #@! TA.AperFunction,Plated,PTH,ViaDrill
T1C0.300
; #@! TA.AperFunction,Plated,PTH,ViaDrill
T2C0.400
; #@! TA.AperFunction,Plated,PTH,ComponentDrill
T3C1.016
; #@! TA.AperFunction,Plated,PTH,ComponentDrill
T4C3.730
%
G90
G05
T1
X12.05Y-36.5
X12.05Y-74.5
X15.037Y-69.7
X16.45Y-39.5
X16.45Y-77.5
X16.8Y1.5
X16.8Y-55.5
X17.537Y-32.9
X19.787Y-50.7
X19.787Y-53.1
X21.2Y-1.5
X21.2Y-58.5
X21.55Y-17.5
X21.65Y-40.675
X21.65Y-78.675
X25.95Y-20.5
X26.4Y-2.675
X26.4Y-59.675
X31.05Y-36.5
X31.05Y-74.5
X31.15Y-21.675
X34.038Y-69.7
X35.45Y-39.5
X35.45Y-77.5
X35.8Y1.5
X36.538Y-32.9
X40.2Y-1.5
X40.55Y-55.5
X40.65Y-40.675
X40.65Y-78.675
X41.788Y5.1
X43.538Y-50.7
X43.538Y-53.1
X44.95Y-58.5
X45.3Y-17.5
X45.4Y-2.675
X48.287Y-12.7
X49.7Y-20.5
X50.05Y-36.5
X50.05Y-74.5
X50.15Y-59.675
X53.037Y-31.7
X53.037Y-69.7
X54.45Y-39.5
X54.45Y-77.5
X54.8Y1.5
X54.9Y-21.675
X59.2Y-1.5
X59.55Y-55.5
X59.65Y-40.675
X59.65Y-78.675
X60.787Y5.1
X62.537Y-53.1
X63.95Y-58.5
X64.3Y-17.5
X64.4Y-2.675
X67.287Y-12.7
X67.287Y-15.1
X68.7Y-20.5
X69.05Y-36.5
X69.05Y-74.5
X69.15Y-59.675
X72.037Y-31.7
X73.45Y-39.5
X73.45Y-77.5
X73.8Y1.5
X73.9Y-21.675
X74.537Y-32.9
X78.2Y-1.5
X78.55Y-55.5
X78.65Y-40.675
X78.65Y-78.675
X79.787Y5.1
X80.45Y-38.413
X80.45Y-76.412
X81.537Y-50.7
X82.95Y-58.5
X83.3Y-17.5
X83.4Y-2.675
X85.2Y-0.412
X86.287Y-12.7
X86.287Y-15.1
X87.7Y-20.5
X88.05Y-36.5
X88.15Y-59.675
X89.95Y-57.412
X92.37Y-78.621
X92.45Y-39.5
X92.8Y1.5
X92.9Y-21.675
X93.537Y-32.9
X94.7Y-19.412
X95.68Y-83.379
X96.188Y-75.115
X97.2Y-1.5
X97.55Y-55.5
X97.65Y-40.675
X98.787Y5.1
X100.537Y-50.7
X100.537Y-53.1
X101.95Y-58.5
X102.3Y-17.5
X102.4Y-2.675
X105.287Y-12.7
X106.7Y-20.5
X107.05Y-36.5
X107.15Y-59.675
X110.037Y-31.7
X111.45Y-39.5
X111.628Y-95.182
X111.8Y1.5
X111.9Y-21.675
X112.537Y-32.9
X114.372Y-89.818
X116.2Y-1.5
X116.55Y-55.5
X116.65Y-40.675
X117.787Y5.1
X119.537Y-50.7
X120.95Y-58.5
X121.3Y-17.5
X121.4Y-2.675
X124.287Y-12.7
X124.287Y-15.1
X125.7Y-20.5
X126.05Y-36.5
X126.15Y-59.675
X129.037Y-31.7
X130.45Y-39.5
X130.8Y1.5
X130.9Y-21.675
X131.537Y-32.9
X135.2Y-1.5
X135.55Y-55.5
X135.55Y-74.5
X135.65Y-40.675
X136.787Y5.1
X138.537Y-50.7
X139.95Y-58.5
X139.95Y-77.5
X140.3Y-17.5
X140.4Y-2.675
X143.287Y-12.7
X143.287Y-15.1
X144.7Y-20.5
X145.05Y-36.5
X145.15Y-59.675
X145.15Y-78.675
X148.037Y-31.7
X149.45Y-39.5
X149.8Y1.5
X149.9Y-21.675
X150.537Y-32.9
X154.2Y-1.5
X154.55Y-55.5
X154.65Y-40.675
X155.787Y5.1
X157.537Y-50.7
X158.95Y-58.5
X159.3Y-17.5
X159.4Y-2.675
X161.758Y-88.843
X162.287Y-12.7
X162.287Y-15.1
X163.453Y-96.208
X163.7Y-20.5
X164.05Y-36.5
X164.15Y-59.675
X167.037Y-31.7
X168.6Y-39.443
X168.8Y1.5
X168.9Y-21.675
X169.537Y-32.9
X173.2Y-1.5
X173.55Y-55.5
X173.65Y-40.675
X174.787Y5.1
X176.537Y-50.7
X176.537Y-53.1
X176.618Y-80.495
X177.95Y-58.5
X178.3Y-17.5
X178.4Y-2.675
X178.451Y-74.681
X178.812Y-13.9
X181.287Y-15.1
X181.582Y-81.505
X182.7Y-20.5
X183.05Y-36.5
X183.15Y-59.675
X187.45Y-39.5
X187.8Y1.5
X187.9Y-21.675
X188.537Y-32.9
X192.2Y-1.5
X192.55Y-55.5
X192.65Y-40.675
X193.787Y5.1
X195.537Y-50.7
X195.537Y-53.1
X196.95Y-58.5
X197.3Y-17.5
X197.3Y-74.5
X197.4Y-2.675
X200.287Y-12.7
X200.287Y-69.7
X201.7Y-20.5
X201.7Y-77.5
X202.05Y-36.5
X202.15Y-59.675
X205.037Y-31.7
X206.45Y-39.5
X206.8Y1.5
X206.9Y-21.675
X206.9Y-78.675
X211.2Y-1.5
X211.55Y-55.5
X211.65Y-40.675
X212.787Y5.1
X214.537Y-53.1
X215.95Y-58.5
X216.3Y-17.5
X216.3Y-74.5
X216.4Y-2.675
X219.287Y-12.7
X219.287Y-15.1
X219.287Y-69.7
X220.7Y-20.5
X220.7Y-77.5
X221.05Y-36.5
X221.15Y-59.675
X224.037Y-31.7
X225.45Y-39.5
X225.8Y1.5
X225.9Y-21.675
X225.9Y-78.675
X226.537Y-32.9
X230.2Y-1.5
X230.55Y-55.5
X230.65Y-40.675
X231.787Y5.1
X233.537Y-50.7
X234.95Y-58.5
X235.3Y-17.5
X235.3Y-74.5
X235.4Y-2.675
X238.287Y-12.7
X238.287Y-15.1
X239.7Y-20.5
X239.7Y-77.5
X240.05Y-36.5
X240.15Y-59.675
X243.037Y-31.7
X244.45Y-39.5
X244.8Y1.5
X244.9Y-21.675
X244.9Y-78.675
X245.537Y-32.9
X249.2Y-1.5
X249.65Y-40.675
X250.787Y5.1
X251.925Y-55.5
X254.3Y-17.5
X254.3Y-74.5
X254.4Y-2.675
X254.912Y-50.7
X254.912Y-53.1
X256.325Y-58.5
X257.287Y-12.7
X257.287Y-15.1
X257.287Y-69.7
X258.7Y-20.5
X258.7Y-77.5
X261.425Y-36.5
X261.525Y-59.675
X263.8Y1.5
X263.9Y-21.675
X263.9Y-78.675
X264.412Y-31.7
X265.825Y-39.5
X266.912Y-32.9
X268.2Y-1.5
X269.787Y5.1
X271.025Y-40.675
X273.3Y-55.5
X273.3Y-74.5
X273.4Y-2.675
X276.287Y-50.7
X276.287Y-53.1
X276.287Y-69.7
X277.7Y-58.5
X277.7Y-77.5
X278.05Y-17.5
X281.037Y-12.7
X281.037Y-15.1
X282.45Y-20.5
X282.8Y1.5
X282.8Y-36.5
X282.9Y-59.675
X282.9Y-78.675
X287.2Y-1.5
X287.2Y-39.5
X287.65Y-21.675
X288.287Y-32.9
X292.3Y-55.5
X292.3Y-74.5
X292.4Y-2.675
X292.4Y-40.675
X295.287Y-50.7
X295.287Y-53.1
X295.287Y-69.7
X296.7Y-58.5
X296.7Y-77.5
X301.9Y-59.675
X301.9Y-78.675
T2
X0.75Y-81.26
X15.35Y-30.06
X15.52Y-43.05
X15.66Y4.95
X15.899Y-45.348
X16.15Y-25.14
X17.21Y-25.87
X17.24Y-27.47
X18.31Y-26.72
X18.37Y-28.23
X21.53Y5.08
X22.08Y-16.19
X22.99Y-11.66
X26.27Y1.42
X28.81Y-79.97
X34.66Y-19.56
X44.1Y-13.98
X51.52Y-30.54
X54.39Y-14.96
X59.24Y-51.83
X66.93Y-51.16
X68.03Y-33.01
X70.56Y-68.65
X73.25Y-53.13
X74.16Y-69.93
X77.7Y-52.1
X84.29Y-80.47
X97.17Y-31.93
X99.01Y-85.4
X102.58Y-78.63
X102.66Y-73.19
X104.36Y-79.63
X106.56Y-89.89
X106.99Y-77.69
X108.52Y-87.88
X109.98Y-77.33
X111.14Y-53.2
X111.9Y-65.13
X112.74Y-72.99
X113.3Y-15.07
X116.52Y-86.54
X121.15Y-51.85
X122.92Y-60.24
X128.34Y-34.08
X129.84Y-69.22
X135.82Y-65.64
X137.3Y-79.28
X140.34Y-68.71
X140.68Y-72.09
X140.786Y-70.539
X142.7Y-69.38
X142.76Y-52.79
X144.32Y-82.36
X147.42Y-53.21
X147.99Y-71.94
X148.3Y-80.72
X149.14Y-63.06
X150.02Y-67.98
X151.77Y-70.92
X151.81Y-81.09
X153.36Y-62.09
X153.64Y-86.3
X153.8Y-52.15
X154.61Y-36.38
X154.65Y-33.67
X155.03Y-31.6
X155.894Y-36.329
X157.11Y-64.05
X158.05Y-15.2
X159.1Y-66.1
X160.76Y-87.03
X160.89Y-33.81
X161.46Y6.52
X161.95Y-82.28
X164.37Y-62.73
X164.72Y-75.389
X165.15Y-40.75
X166.83Y-34.12
X167.82Y-74.62
X169.21Y-75.91
X169.39Y-53.07
X170.66Y-73.919
X174.83Y-77.43
X175.65Y-76.5
X186.8Y-79.52
X186.83Y-60.71
X187.14Y4.95
X187.81Y-12.94
X196.7Y-13.94
X203.48Y-30.5
X206.47Y-32.81
X208.18Y-15.04
X211.23Y-52.05
X223.46Y-34.17
X227.43Y-51.71
X237.087Y-68.919
X244.39Y-70.92
X244.98Y-53.21
X248.0Y-68.17
X269.14Y-68.22
X280.58Y-24.91
X289.94Y3.18
T3
X-13.997Y-32.44
X-13.997Y-37.52
X-13.997Y-42.6
X-13.997Y-47.68
X-13.997Y-52.76
X-13.997Y-57.84
X-13.997Y-62.92
X-13.997Y-68.0
X-13.997Y-73.08
X-13.997Y-78.16
X-13.75Y-29.9
X-13.743Y-34.98
X-13.743Y-40.06
X-13.743Y-45.14
X-13.743Y-50.22
X-13.743Y-55.3
X-13.743Y-60.38
X-13.743Y-65.46
X-13.743Y-70.54
X-13.743Y-75.62
X1.15Y-29.9
X1.243Y-34.98
X1.243Y-40.06
X1.243Y-45.14
X1.243Y-50.22
X1.243Y-55.3
X1.243Y-60.38
X1.243Y-65.46
X1.243Y-70.54
X1.243Y-75.62
X1.497Y-32.44
X1.497Y-37.52
X1.497Y-42.6
X1.497Y-47.68
X1.497Y-52.76
X1.497Y-57.84
X1.497Y-62.92
X1.497Y-68.0
X1.497Y-73.08
X1.497Y-78.16
T4
X-12.75Y-117.5
X-12.75Y-168.5
X9.5Y9.5
X9.5Y-24.35
X23.75Y-85.5
X57.0Y-10.1
X61.75Y-85.5
X69.75Y-117.5
X69.75Y-168.5
X71.25Y-48.1
X104.5Y9.5
X137.75Y-86.5
X147.25Y-48.1
X152.0Y-10.1
X199.5Y9.5
X205.75Y-117.5
X205.75Y-168.5
X223.25Y-48.1
X228.0Y-85.5
X247.0Y-10.1
X288.25Y-117.5
X288.25Y-168.5
X294.5Y9.5
X304.0Y-48.1
X304.0Y-85.5
T0
M30
