%TF.GenerationSoftware,KiCad,Pcbnew,(6.0.7-1)-1*%
%TF.CreationDate,2022-08-16T19:56:18+02:00*%
%TF.ProjectId,wrist-support,77726973-742d-4737-9570-706f72742e6b,rev?*%
%TF.SameCoordinates,Original*%
%TF.FileFunction,Drillmap*%
%TF.FilePolarity,Positive*%
%FSLAX45Y45*%
G04 Gerber Fmt 4.5, Leading zero omitted, Abs format (unit mm)*
G04 Created by KiCad (PCBNEW (6.0.7-1)-1) date 2022-08-16 19:56:18*
%MOMM*%
%LPD*%
G01*
G04 APERTURE LIST*
%ADD10C,0.150000*%
%ADD11C,0.200000*%
G04 APERTURE END LIST*
D10*
X9050000Y-300000D02*
G75*
G03*
X8750000Y0I-300000J0D01*
G01*
X300000Y-5900000D02*
X8750000Y-5900000D01*
X8750000Y-5900000D02*
G75*
G03*
X9050000Y-5600000I0J300000D01*
G01*
X300000Y0D02*
G75*
G03*
X0Y-300000I0J-300000D01*
G01*
X0Y-300000D02*
X0Y-5600000D01*
X0Y-5600000D02*
G75*
G03*
X300000Y-5900000I300000J0D01*
G01*
X9050000Y-5600000D02*
X9050000Y-300000D01*
X300000Y0D02*
X8750000Y0D01*
D11*
X250119Y-6217976D02*
X250119Y-6017976D01*
X297738Y-6017976D01*
X326310Y-6027500D01*
X345357Y-6046548D01*
X354881Y-6065595D01*
X364405Y-6103690D01*
X364405Y-6132262D01*
X354881Y-6170357D01*
X345357Y-6189405D01*
X326310Y-6208452D01*
X297738Y-6217976D01*
X250119Y-6217976D01*
X450119Y-6217976D02*
X450119Y-6084643D01*
X450119Y-6122738D02*
X459643Y-6103690D01*
X469167Y-6094167D01*
X488214Y-6084643D01*
X507262Y-6084643D01*
X573929Y-6217976D02*
X573929Y-6084643D01*
X573929Y-6017976D02*
X564405Y-6027500D01*
X573929Y-6037024D01*
X583452Y-6027500D01*
X573929Y-6017976D01*
X573929Y-6037024D01*
X697738Y-6217976D02*
X678690Y-6208452D01*
X669167Y-6189405D01*
X669167Y-6017976D01*
X802500Y-6217976D02*
X783452Y-6208452D01*
X773928Y-6189405D01*
X773928Y-6017976D01*
X1031071Y-6217976D02*
X1031071Y-6017976D01*
X1097738Y-6160833D01*
X1164405Y-6017976D01*
X1164405Y-6217976D01*
X1345357Y-6217976D02*
X1345357Y-6113214D01*
X1335833Y-6094167D01*
X1316786Y-6084643D01*
X1278690Y-6084643D01*
X1259643Y-6094167D01*
X1345357Y-6208452D02*
X1326310Y-6217976D01*
X1278690Y-6217976D01*
X1259643Y-6208452D01*
X1250119Y-6189405D01*
X1250119Y-6170357D01*
X1259643Y-6151309D01*
X1278690Y-6141786D01*
X1326310Y-6141786D01*
X1345357Y-6132262D01*
X1440595Y-6084643D02*
X1440595Y-6284643D01*
X1440595Y-6094167D02*
X1459643Y-6084643D01*
X1497738Y-6084643D01*
X1516786Y-6094167D01*
X1526309Y-6103690D01*
X1535833Y-6122738D01*
X1535833Y-6179881D01*
X1526309Y-6198928D01*
X1516786Y-6208452D01*
X1497738Y-6217976D01*
X1459643Y-6217976D01*
X1440595Y-6208452D01*
X1621548Y-6198928D02*
X1631071Y-6208452D01*
X1621548Y-6217976D01*
X1612024Y-6208452D01*
X1621548Y-6198928D01*
X1621548Y-6217976D01*
X1621548Y-6094167D02*
X1631071Y-6103690D01*
X1621548Y-6113214D01*
X1612024Y-6103690D01*
X1621548Y-6094167D01*
X1621548Y-6113214D01*
M02*
