%TF.GenerationSoftware,KiCad,Pcbnew,(6.0.7-1)-1*%
%TF.CreationDate,2022-08-16T19:56:18+02:00*%
%TF.ProjectId,wrist-support,77726973-742d-4737-9570-706f72742e6b,rev?*%
%TF.SameCoordinates,Original*%
%TF.FileFunction,Drillmap*%
%TF.FilePolarity,Positive*%
%FSLAX45Y45*%
G04 Gerber Fmt 4.5, Leading zero omitted, Abs format (unit mm)*
G04 Created by KiCad (PCBNEW (6.0.7-1)-1) date 2022-08-16 19:56:18*
%MOMM*%
%LPD*%
G01*
G04 APERTURE LIST*
%ADD10C,0.150000*%
%ADD11C,0.200000*%
%ADD12C,0.220000*%
G04 APERTURE END LIST*
D10*
X9050000Y-300000D02*
G75*
G03*
X8750000Y0I-300000J0D01*
G01*
X300000Y-5900000D02*
X8750000Y-5900000D01*
X8750000Y-5900000D02*
G75*
G03*
X9050000Y-5600000I0J300000D01*
G01*
X300000Y0D02*
G75*
G03*
X0Y-300000I0J-300000D01*
G01*
X0Y-300000D02*
X0Y-5600000D01*
X0Y-5600000D02*
G75*
G03*
X300000Y-5900000I300000J0D01*
G01*
X9050000Y-5600000D02*
X9050000Y-300000D01*
X300000Y0D02*
X8750000Y0D01*
D11*
D12*
X290000Y-290000D02*
X510000Y-510000D01*
X510000Y-290000D02*
X290000Y-510000D01*
X290000Y-5390000D02*
X510000Y-5610000D01*
X510000Y-5390000D02*
X290000Y-5610000D01*
X8540000Y-290000D02*
X8760000Y-510000D01*
X8760000Y-290000D02*
X8540000Y-510000D01*
X8540000Y-5390000D02*
X8760000Y-5610000D01*
X8760000Y-5390000D02*
X8540000Y-5610000D01*
D11*
X250119Y-6217976D02*
X250119Y-6017976D01*
X297738Y-6017976D01*
X326310Y-6027500D01*
X345357Y-6046548D01*
X354881Y-6065595D01*
X364405Y-6103690D01*
X364405Y-6132262D01*
X354881Y-6170357D01*
X345357Y-6189405D01*
X326310Y-6208452D01*
X297738Y-6217976D01*
X250119Y-6217976D01*
X450119Y-6217976D02*
X450119Y-6084643D01*
X450119Y-6122738D02*
X459643Y-6103690D01*
X469167Y-6094167D01*
X488214Y-6084643D01*
X507262Y-6084643D01*
X573929Y-6217976D02*
X573929Y-6084643D01*
X573929Y-6017976D02*
X564405Y-6027500D01*
X573929Y-6037024D01*
X583452Y-6027500D01*
X573929Y-6017976D01*
X573929Y-6037024D01*
X697738Y-6217976D02*
X678690Y-6208452D01*
X669167Y-6189405D01*
X669167Y-6017976D01*
X802500Y-6217976D02*
X783452Y-6208452D01*
X773928Y-6189405D01*
X773928Y-6017976D01*
X1031071Y-6217976D02*
X1031071Y-6017976D01*
X1097738Y-6160833D01*
X1164405Y-6017976D01*
X1164405Y-6217976D01*
X1345357Y-6217976D02*
X1345357Y-6113214D01*
X1335833Y-6094167D01*
X1316786Y-6084643D01*
X1278690Y-6084643D01*
X1259643Y-6094167D01*
X1345357Y-6208452D02*
X1326310Y-6217976D01*
X1278690Y-6217976D01*
X1259643Y-6208452D01*
X1250119Y-6189405D01*
X1250119Y-6170357D01*
X1259643Y-6151309D01*
X1278690Y-6141786D01*
X1326310Y-6141786D01*
X1345357Y-6132262D01*
X1440595Y-6084643D02*
X1440595Y-6284643D01*
X1440595Y-6094167D02*
X1459643Y-6084643D01*
X1497738Y-6084643D01*
X1516786Y-6094167D01*
X1526309Y-6103690D01*
X1535833Y-6122738D01*
X1535833Y-6179881D01*
X1526309Y-6198928D01*
X1516786Y-6208452D01*
X1497738Y-6217976D01*
X1459643Y-6217976D01*
X1440595Y-6208452D01*
X1621548Y-6198928D02*
X1631071Y-6208452D01*
X1621548Y-6217976D01*
X1612024Y-6208452D01*
X1621548Y-6198928D01*
X1621548Y-6217976D01*
X1621548Y-6094167D02*
X1631071Y-6103690D01*
X1621548Y-6113214D01*
X1612024Y-6103690D01*
X1621548Y-6094167D01*
X1621548Y-6113214D01*
X-207500Y-6447500D02*
X-7500Y-6647500D01*
X-7500Y-6447500D02*
X-207500Y-6647500D01*
X240595Y-6457024D02*
X250119Y-6447500D01*
X269167Y-6437976D01*
X316786Y-6437976D01*
X335833Y-6447500D01*
X345357Y-6457024D01*
X354881Y-6476071D01*
X354881Y-6495119D01*
X345357Y-6523690D01*
X231071Y-6637976D01*
X354881Y-6637976D01*
X440595Y-6618928D02*
X450119Y-6628452D01*
X440595Y-6637976D01*
X431071Y-6628452D01*
X440595Y-6618928D01*
X440595Y-6637976D01*
X526310Y-6457024D02*
X535833Y-6447500D01*
X554881Y-6437976D01*
X602500Y-6437976D01*
X621548Y-6447500D01*
X631071Y-6457024D01*
X640595Y-6476071D01*
X640595Y-6495119D01*
X631071Y-6523690D01*
X516786Y-6637976D01*
X640595Y-6637976D01*
X764405Y-6437976D02*
X783452Y-6437976D01*
X802500Y-6447500D01*
X812024Y-6457024D01*
X821548Y-6476071D01*
X831071Y-6514167D01*
X831071Y-6561786D01*
X821548Y-6599881D01*
X812024Y-6618928D01*
X802500Y-6628452D01*
X783452Y-6637976D01*
X764405Y-6637976D01*
X745357Y-6628452D01*
X735833Y-6618928D01*
X726309Y-6599881D01*
X716786Y-6561786D01*
X716786Y-6514167D01*
X726309Y-6476071D01*
X735833Y-6457024D01*
X745357Y-6447500D01*
X764405Y-6437976D01*
X954881Y-6437976D02*
X973928Y-6437976D01*
X992976Y-6447500D01*
X1002500Y-6457024D01*
X1012024Y-6476071D01*
X1021548Y-6514167D01*
X1021548Y-6561786D01*
X1012024Y-6599881D01*
X1002500Y-6618928D01*
X992976Y-6628452D01*
X973928Y-6637976D01*
X954881Y-6637976D01*
X935833Y-6628452D01*
X926309Y-6618928D01*
X916786Y-6599881D01*
X907262Y-6561786D01*
X907262Y-6514167D01*
X916786Y-6476071D01*
X926309Y-6457024D01*
X935833Y-6447500D01*
X954881Y-6437976D01*
X1107262Y-6637976D02*
X1107262Y-6504643D01*
X1107262Y-6523690D02*
X1116786Y-6514167D01*
X1135833Y-6504643D01*
X1164405Y-6504643D01*
X1183452Y-6514167D01*
X1192976Y-6533214D01*
X1192976Y-6637976D01*
X1192976Y-6533214D02*
X1202500Y-6514167D01*
X1221548Y-6504643D01*
X1250119Y-6504643D01*
X1269167Y-6514167D01*
X1278690Y-6533214D01*
X1278690Y-6637976D01*
X1373929Y-6637976D02*
X1373929Y-6504643D01*
X1373929Y-6523690D02*
X1383452Y-6514167D01*
X1402500Y-6504643D01*
X1431071Y-6504643D01*
X1450119Y-6514167D01*
X1459643Y-6533214D01*
X1459643Y-6637976D01*
X1459643Y-6533214D02*
X1469167Y-6514167D01*
X1488214Y-6504643D01*
X1516786Y-6504643D01*
X1535833Y-6514167D01*
X1545357Y-6533214D01*
X1545357Y-6637976D01*
X1935833Y-6428452D02*
X1764405Y-6685595D01*
X2192976Y-6437976D02*
X2212024Y-6437976D01*
X2231071Y-6447500D01*
X2240595Y-6457024D01*
X2250119Y-6476071D01*
X2259643Y-6514167D01*
X2259643Y-6561786D01*
X2250119Y-6599881D01*
X2240595Y-6618928D01*
X2231071Y-6628452D01*
X2212024Y-6637976D01*
X2192976Y-6637976D01*
X2173929Y-6628452D01*
X2164405Y-6618928D01*
X2154881Y-6599881D01*
X2145357Y-6561786D01*
X2145357Y-6514167D01*
X2154881Y-6476071D01*
X2164405Y-6457024D01*
X2173929Y-6447500D01*
X2192976Y-6437976D01*
X2345357Y-6618928D02*
X2354881Y-6628452D01*
X2345357Y-6637976D01*
X2335833Y-6628452D01*
X2345357Y-6618928D01*
X2345357Y-6637976D01*
X2478690Y-6437976D02*
X2497738Y-6437976D01*
X2516786Y-6447500D01*
X2526310Y-6457024D01*
X2535833Y-6476071D01*
X2545357Y-6514167D01*
X2545357Y-6561786D01*
X2535833Y-6599881D01*
X2526310Y-6618928D01*
X2516786Y-6628452D01*
X2497738Y-6637976D01*
X2478690Y-6637976D01*
X2459643Y-6628452D01*
X2450119Y-6618928D01*
X2440595Y-6599881D01*
X2431071Y-6561786D01*
X2431071Y-6514167D01*
X2440595Y-6476071D01*
X2450119Y-6457024D01*
X2459643Y-6447500D01*
X2478690Y-6437976D01*
X2659643Y-6523690D02*
X2640595Y-6514167D01*
X2631071Y-6504643D01*
X2621548Y-6485595D01*
X2621548Y-6476071D01*
X2631071Y-6457024D01*
X2640595Y-6447500D01*
X2659643Y-6437976D01*
X2697738Y-6437976D01*
X2716786Y-6447500D01*
X2726310Y-6457024D01*
X2735833Y-6476071D01*
X2735833Y-6485595D01*
X2726310Y-6504643D01*
X2716786Y-6514167D01*
X2697738Y-6523690D01*
X2659643Y-6523690D01*
X2640595Y-6533214D01*
X2631071Y-6542738D01*
X2621548Y-6561786D01*
X2621548Y-6599881D01*
X2631071Y-6618928D01*
X2640595Y-6628452D01*
X2659643Y-6637976D01*
X2697738Y-6637976D01*
X2716786Y-6628452D01*
X2726310Y-6618928D01*
X2735833Y-6599881D01*
X2735833Y-6561786D01*
X2726310Y-6542738D01*
X2716786Y-6533214D01*
X2697738Y-6523690D01*
X2907262Y-6437976D02*
X2869167Y-6437976D01*
X2850119Y-6447500D01*
X2840595Y-6457024D01*
X2821548Y-6485595D01*
X2812024Y-6523690D01*
X2812024Y-6599881D01*
X2821548Y-6618928D01*
X2831071Y-6628452D01*
X2850119Y-6637976D01*
X2888214Y-6637976D01*
X2907262Y-6628452D01*
X2916786Y-6618928D01*
X2926309Y-6599881D01*
X2926309Y-6552262D01*
X2916786Y-6533214D01*
X2907262Y-6523690D01*
X2888214Y-6514167D01*
X2850119Y-6514167D01*
X2831071Y-6523690D01*
X2821548Y-6533214D01*
X2812024Y-6552262D01*
X3097738Y-6437976D02*
X3059643Y-6437976D01*
X3040595Y-6447500D01*
X3031071Y-6457024D01*
X3012024Y-6485595D01*
X3002500Y-6523690D01*
X3002500Y-6599881D01*
X3012024Y-6618928D01*
X3021548Y-6628452D01*
X3040595Y-6637976D01*
X3078690Y-6637976D01*
X3097738Y-6628452D01*
X3107262Y-6618928D01*
X3116786Y-6599881D01*
X3116786Y-6552262D01*
X3107262Y-6533214D01*
X3097738Y-6523690D01*
X3078690Y-6514167D01*
X3040595Y-6514167D01*
X3021548Y-6523690D01*
X3012024Y-6533214D01*
X3002500Y-6552262D01*
X3192976Y-6437976D02*
X3192976Y-6476071D01*
X3269167Y-6437976D02*
X3269167Y-6476071D01*
X3564405Y-6714167D02*
X3554881Y-6704643D01*
X3535833Y-6676071D01*
X3526309Y-6657024D01*
X3516786Y-6628452D01*
X3507262Y-6580833D01*
X3507262Y-6542738D01*
X3516786Y-6495119D01*
X3526309Y-6466548D01*
X3535833Y-6447500D01*
X3554881Y-6418928D01*
X3564405Y-6409405D01*
X3726309Y-6504643D02*
X3726309Y-6637976D01*
X3678690Y-6428452D02*
X3631071Y-6571309D01*
X3754881Y-6571309D01*
X3983452Y-6637976D02*
X3983452Y-6437976D01*
X4069167Y-6637976D02*
X4069167Y-6533214D01*
X4059643Y-6514167D01*
X4040595Y-6504643D01*
X4012024Y-6504643D01*
X3992976Y-6514167D01*
X3983452Y-6523690D01*
X4192976Y-6637976D02*
X4173928Y-6628452D01*
X4164405Y-6618928D01*
X4154881Y-6599881D01*
X4154881Y-6542738D01*
X4164405Y-6523690D01*
X4173928Y-6514167D01*
X4192976Y-6504643D01*
X4221548Y-6504643D01*
X4240595Y-6514167D01*
X4250119Y-6523690D01*
X4259643Y-6542738D01*
X4259643Y-6599881D01*
X4250119Y-6618928D01*
X4240595Y-6628452D01*
X4221548Y-6637976D01*
X4192976Y-6637976D01*
X4373929Y-6637976D02*
X4354881Y-6628452D01*
X4345357Y-6609405D01*
X4345357Y-6437976D01*
X4526310Y-6628452D02*
X4507262Y-6637976D01*
X4469167Y-6637976D01*
X4450119Y-6628452D01*
X4440595Y-6609405D01*
X4440595Y-6533214D01*
X4450119Y-6514167D01*
X4469167Y-6504643D01*
X4507262Y-6504643D01*
X4526310Y-6514167D01*
X4535833Y-6533214D01*
X4535833Y-6552262D01*
X4440595Y-6571309D01*
X4612024Y-6628452D02*
X4631071Y-6637976D01*
X4669167Y-6637976D01*
X4688214Y-6628452D01*
X4697738Y-6609405D01*
X4697738Y-6599881D01*
X4688214Y-6580833D01*
X4669167Y-6571309D01*
X4640595Y-6571309D01*
X4621548Y-6561786D01*
X4612024Y-6542738D01*
X4612024Y-6533214D01*
X4621548Y-6514167D01*
X4640595Y-6504643D01*
X4669167Y-6504643D01*
X4688214Y-6514167D01*
X4764405Y-6714167D02*
X4773929Y-6704643D01*
X4792976Y-6676071D01*
X4802500Y-6657024D01*
X4812024Y-6628452D01*
X4821548Y-6580833D01*
X4821548Y-6542738D01*
X4812024Y-6495119D01*
X4802500Y-6466548D01*
X4792976Y-6447500D01*
X4773929Y-6418928D01*
X4764405Y-6409405D01*
M02*
